<svg width="256" height="256" viewBox="0 0 256 256" fill="none" xmlns="http://www.w3.org/2000/svg">
<path d="M128 32C181.019 32 224 74.9807 224 128C224 181.019 181.019 224 128 224C102.724 224 79.7287 214.238 62.4339 198.397" stroke="#60c5c3" stroke-width="14" stroke-linecap="round"/>
<path d="M128 32C101.492 32 77.4925 42.7463 60.1421 60.0967C42.7918 77.4471 32 101.447 32 127.954C32 143.14 35.5312 157.502 41.8797 170.22" stroke="#60c5c3" stroke-width="14" stroke-linecap="round"/>
<path d="M128 80C128 80 160 115.817 160 144C160 161.673 145.673 176 128 176C110.327 176 96 161.673 96 144C96 115.817 128 80 128 80Z" stroke="#60c5c3" stroke-width="12" stroke-linejoin="round"/>
<path d="M106.343 148C106.343 158.493 114.85 167 125.343 167" stroke="#60c5c3" stroke-width="8" stroke-linecap="round"/>
</svg>